# xmcd
#
# Track frame offsets: 
#        150
#        12293
#        25378
#        37060
#        48999
#        61686
#        74821
#        86611
#        97878
#        110929
#        123155
#        135582
#        149221
#        160694
#        172565
#        184482
#        196158
#        210385
#        222809
#        235431
#        246630
#        257691
#        271346
#        287671
#        299631
#        311137
#        323308
#        334581
#
# Disc length: 4622 seconds
#
# Revision: 2
# Processed by: cddbd v1.5.2PL0 Copyright (c) Steve Scherf et al.
# Submitted via: ExactAudioCopy v0.99pb5
#
DISCID=ab120c1c
DTITLE=Various Artist - The Downhome Blues Sessions Volume 4: Southern Countr
DTITLE=y Blues Guitarists 1948-1952
DYEAR=2005
DGENRE=Blues
TTITLE0=Alexander Moore With Smokey Hogg - Neglected Woman
TTITLE1=Alexander Moore With Smokey Hogg - Carolina
TTITLE2=Alexander Moore With Smokey Hogg - Lillie Mae Boogie
TTITLE3=Alexander Moore With Smokey Hogg - If I Lose You Woman
TTITLE4=Jesse Thomas - Meet Me Tonight Along The Avenue
TTITLE5=Jesse Thomas - Gonna Write You A Letter
TTITLE6=Pine Top Slim And His Guitar - Applejack Boogie
TTITLE7=Pine Top Slim And His Guitar - I'm Gonna Carry On
TTITLE8=Pine Top Slim And His Guitar - John Henry
TTITLE9=Pine Top Slim And His Guitar - Baby Please Don't Go
TTITLE10=Leroy Simpson With Lane Hardin - 13 Highway
TTITLE11=Leroy Simpson With Lane Hardin - Bluebird Blues
TTITLE12=Lane Hardin aka Arkansas Johnny Todd - Keep 'Em Down
TTITLE13=Lane Hardin aka Arkansas Johnny Todd - I'll Be Glad When You'
TTITLE13=re Dead, You Rascal You
TTITLE14=Big Bill Dotson - Dark Old World
TTITLE15=Big Bill Dotson - Thinking Life Over aka Sittin' Down Thinkin
TTITLE15='
TTITLE16=Pine Top Slim And His Guitar - Fast Life
TTITLE17=Pine Top Slim And His Guitar - Mean Old Frisco
TTITLE18=Pine Top Slim And His Guitar - Poor Boy
TTITLE19=Pine Top Slim And His Guitar - Applejack Boogie (Take 1)
TTITLE20=Little Son Jackson - Milford Blues
TTITLE21=Little Son Jackson - Talkin' Boogie
TTITLE22=Jesse Thomas - Night Time Anytime aka Tomorrow I May Be Gone
TTITLE23=Jesse Thomas - Texas Blues
TTITLE24=Big Charley Bradix - Numbered Days
TTITLE25=Big Charley Bradix - Wee Wee Hours
TTITLE26=Big Charley Bradix - Dollar Diggin' Woman
TTITLE27=Big Charley Bradix - Boogie Like You Wanna
EXTD=
EXTT0=
EXTT1=
EXTT2=
EXTT3=
EXTT4=
EXTT5=
EXTT6=
EXTT7=
EXTT8=
EXTT9=
EXTT10=
EXTT11=
EXTT12=
EXTT13=
EXTT14=
EXTT15=
EXTT16=
EXTT17=
EXTT18=
EXTT19=
EXTT20=
EXTT21=
EXTT22=
EXTT23=
EXTT24=
EXTT25=
EXTT26=
EXTT27=
PLAYORDER=
